<svg xmlns="http://www.w3.org/2000/svg" xmlns:xlink="http://www.w3.org/1999/xlink" version="1.1" id="layer_1" x="0px" y="0px" viewBox="0 0 496.1 496.1" style="enable-background:new 0 0 496.1 496.1;" xml:space="preserve">
    <g transform="matrix( 0.998046875, 0, 0, 0.998046875, -563.15,-193.75) ">
        <g>
            <g id="Layer0_0_MEMBER_0_MEMBER_0_FILL">
                <path class="st0" d="M850,319.9c10-10,15-22.1,15-36.2c0-14.2-5-26.2-15-36.2c-10-10-22.1-15-36.2-15c-14.2,0-26.2,5-36.2,15     c-10,10-15,22.1-15,36.2c0,14.2,5,26.2,15,36.2s22.1,15,36.2,15C827.9,334.9,840,329.9,850,319.9z" fill="red"/>
                <g>
                    <path d="M824,302.1v-2.6h14.7v17.3h-47.9v-14.7h3.9v-35.8h-3.9v-14.6h47.9v17.2H824v-2.6h-11.4v10.6h2.7v-2.6h14.6      v19.8h-14.6v-2.6h-2.7v10.6H824z" fill="#fff"/>
                </g>
            </g>
        </g>
    </g>
    <g transform="matrix( 1, 0, 0, 1, 0,0) ">
        <g>
            <g id="Layer0_0_MEMBER_1_FILL">
                <path fill="#a8a9ad" d="M422.9,74.3c-0.4-0.4-0.8-0.8-1.2-1.2c-5.7,0.9-11.6,1.3-17.6,1.3c-28.7,0-53.2-10.1-73.4-30.4     C320,33.5,312.2,21.6,307.1,8.6c-10.9-2.6-22.2-4.4-33.8-5.4c-8.1-0.7-16.4-1.1-24.8-1.1c-8.4,0-16.6,0.4-24.7,1.1     c-11.4,1-22.5,2.8-33.4,5.3c-5.1,13-12.9,24.9-23.6,35.5c-20.3,20.3-44.7,30.4-73.4,30.4c-6.2,0-12.1-0.5-17.9-1.4     c-0.4,0.4-0.9,0.8-1.3,1.2C39.9,108.8,17.8,148.4,8,193c13.1,17.6,19.7,37.9,19.7,61c0,21.9-5.9,41.3-17.8,58.3     c10.6,41.4,32.1,78.2,64.4,110.6c3.8,3.7,7.6,7.4,11.6,10.9c2.5-0.2,5.1-0.2,7.7-0.2c28.7,0,53.1,10.1,73.4,30.4     c6.3,6.3,11.6,13,15.9,20.1c0.7,1.1,1.3,2.2,2,3.3c20.2,5.2,41.4,7.8,63.8,7.8c22.5,0,43.9-2.6,64.3-7.9c0.6-1.1,1.2-2.1,1.9-3.2     c4.3-7.1,9.6-13.8,15.9-20.1c20.3-20.3,44.8-30.4,73.4-30.4c2.4,0,4.9,0.1,7.3,0.2c3.9-3.5,7.7-7.1,11.5-10.9     c32-32,53.4-68.5,64.1-109.2c-12.4-17.3-18.7-37.2-18.7-59.6c0-23.6,6.9-44.4,20.7-62.3C479.1,147.6,457,108.5,422.9,74.3      M407,115c15.9,4.3,27.9,13.5,36.1,27.7c8.2,14.2,10.2,29.2,6,45.1c-4.3,15.9-13.5,27.9-27.7,36c-14.2,8.2-29.2,10.2-45,6     c-15.9-4.3-27.9-13.5-36.1-27.7c-8.2-14.2-10.2-29.2-5.9-45.1c4.2-15.8,13.4-27.9,27.6-36.1C376.1,112.7,391.1,110.8,407,115      M206.5,47.1c11.6-11.6,25.6-17.4,42-17.4c16.4,0,30.4,5.8,42.1,17.4c11.6,11.6,17.4,25.6,17.4,42s-5.8,30.4-17.4,42.1     c-11.6,11.6-25.6,17.4-42.1,17.4c-16.4,0-30.4-5.8-42-17.4c-11.6-11.6-17.4-25.6-17.4-42.1S194.9,58.7,206.5,47.1 M214.7,248.7     l-8.5-24.5l25.4-4.9l17-19.6l17,19.6l25.4,4.9l-8.5,24.5l8.5,24.4l-25.4,4.9l-17,19.6l-17-19.6l-25.4-4.9L214.7,248.7      M327.6,351.5c-3.9-16-1.5-31,7-45c8.5-14,20.8-23,36.7-26.9c15.9-3.9,30.9-1.6,45,6.9c14,8.5,23,20.7,26.8,36.7     c3.9,16,1.6,31-6.9,45c-8.5,14-20.7,23-36.7,26.9c-15.9,3.9-30.9,1.5-45-7C340.4,379.7,331.5,367.5,327.6,351.5 M61.8,141     c8.5-14,20.8-23,36.7-26.9c15.9-3.9,30.9-1.6,44.9,6.9c14,8.5,23,20.8,26.9,36.7c3.9,16,1.6,31-6.9,45c-8.5,14-20.8,23-36.7,26.9     c-15.9,3.9-30.9,1.6-44.9-7c-14-8.5-23-20.7-26.9-36.6C51,170,53.3,155,61.8,141 M57.9,316.6c4.2-15.8,13.5-27.9,27.7-36.1     c14.2-8.2,29.2-10.2,45.1-5.9c15.8,4.3,27.9,13.5,36.1,27.7c8.2,14.2,10.1,29.2,5.9,45.1c-4.2,15.9-13.5,27.9-27.7,36.1     c-14.2,8.2-29.2,10.2-45.1,5.9S72,375.9,63.8,361.7C55.6,347.5,53.6,332.5,57.9,316.6 M307.9,408.2c0,16.4-5.8,30.4-17.4,42     c-11.6,11.6-25.6,17.4-42.1,17.4c-16.4,0-30.4-5.8-42-17.4c-11.6-11.6-17.4-25.6-17.4-42c0-16.4,5.8-30.4,17.4-42     c11.6-11.6,25.6-17.5,42-17.5c16.4,0,30.4,5.8,42.1,17.5C302.1,377.8,307.9,391.8,307.9,408.2 M234,234.2c-4,4-6,8.8-6,14.4     c0,5.7,2,10.5,6,14.5c4,4,8.8,6,14.5,6c5.7,0,10.5-2,14.5-6c4-4,6-8.8,6-14.5c0-5.6-2-10.4-6-14.4c-4-4-8.8-6-14.5-6     C242.8,228.2,238,230.2,234,234.2"/>
            </g>
        </g>
        <g>
            <path d="M384.3,177.7v14.4h3.9v14.7h-25.7v-14.7h3.9v-35.7h-3.9v-14.6h21.1l17.9,29.7v-15.1h-3.9v-14.6h25.7v14.6    h-3.9v35.7h3.9v14.7h-21.5L384.3,177.7z" fill="#a8a9ad"/>
        </g>
    </g>
    <g>
        <path d="M247.4,428.3v14.7h-25.7v-14.7h3.9v-35.7h-3.9V378H262l10.4,10.4V405l-4.3,4.3l4.3,4.3v14.7h3.9v14.7h-21.8   v-24.3l-2.1-2.1h-8.9v11.7H247.4z M252.4,402l2.1-2.1v-5.2l-2.1-2.1h-8.9v9.4H252.4z" fill="#a8a9ad"/>
    </g>
    <g>
        <path class="st0" d="M395.5,356.8v-2.6h14.7v17.2h-47.8v-14.7h3.9v-35.7h-3.9v-14.6h47.8v17.2h-14.7v-2.6h-11.4v10.6h2.7v-2.6h14.6   v19.7h-14.6v-2.6h-2.7v10.5H395.5z" fill="#a8a9ad"/>
    </g>
    <g>
        <path d="M136.9,356.8l-10.4,10.4H97.9l-10.4-10.4v-44.2l10.4-10.4h28.6l10.4,10.4v14.5H119v-8.2l-2-2.1h-9.5l-2.1,2.1   v31.6l2.1,2h9.5l2-2v-6.2h-4.9V331h22.8V356.8z" fill="#a8a9ad"/>
    </g>
    <g>
        <path d="M120.5,195.3h3.9v14.7H98.7v-14.7h3.9v-14.7l-21.1-21.1h-6.1V145h30.9v14.6h-2.6l7.8,7.8l7.8-7.8h-2.7V145h30   v14.6h-5.1l-21.1,21.1V195.3z" fill="#a8a9ad"/>
    </g>
</svg>