<svg xmlns="http://www.w3.org/2000/svg" xmlns:xlink="http://www.w3.org/1999/xlink" version="1.1" id="layer_1" x="0px" y="0px" viewBox="0 0 740 740" style="enable-background:new 0 0 740 740;" xml:space="preserve">
    <style type="text/css">
	.st0{fill:#FFFFFF;}
</style>
    <g transform="matrix( 0.998046875, 0, 0, 0.998046875, -563.15,-193.75) ">
        <g>
            <g id="Layer0_0_MEMBER_0_MEMBER_0_FILL">
                <path d="M972.2,362.9c10-10,15-22.1,15-36.2c0-14.2-5-26.2-15-36.2s-22.1-15-36.2-15c-14.2,0-26.2,5-36.2,15s-15,22.1-15,36.2     c0,14.2,5,26.2,15,36.2c10,10,22.1,15,36.2,15C950.1,377.9,962.2,372.9,972.2,362.9z" fill="red"/>
                <g>
                    <path class="st0" d="M946.3,345.1v-2.6H961v17.3H913v-14.7h3.9v-35.8H913v-14.6H961v17.2h-14.7v-2.6h-11.4v10.6h2.7v-2.6h14.6      v19.8h-14.6v-2.6h-2.7v10.6H946.3z"/>
                </g>
            </g>
        </g>
    </g>
    <g transform="matrix( 1, 0, 0, 1, 0,0) ">
        <g>
            <g id="Layer0_0_MEMBER_1_FILL">
                <path fill="#a8a9ad" d="M478.6,576.5c-5.2-5.1-12.3-7.7-21.5-7.7H434v53.8h23.1c9.1,0,16.3-2.6,21.5-7.8c4.9-4.8,7.4-11.2,7.4-19.1     C486,587.7,483.6,581.3,478.6,576.5 M457.1,577.3c5.9,0,10.5,1.7,13.7,5c3.1,3.3,4.6,7.7,4.6,13.4c0,5.6-1.6,10.1-4.6,13.3     c-3.2,3.3-7.8,5-13.7,5h-13v-36.6H457.1 M402.9,568.8h-11.6l-23,53.8H379l5.6-13.8h24.5l5.6,13.8h11.1L402.9,568.8 M406.2,600.9     h-18.9l9.7-23.8L406.2,600.9 M596.5,576.5c-5.2-5.1-12.3-7.7-21.5-7.7h-23.2v53.8H575c9.1,0,16.3-2.6,21.5-7.8     c4.9-4.8,7.3-11.2,7.3-19.1C603.8,587.7,601.4,581.3,596.5,576.5 M575,577.3c5.9,0,10.5,1.7,13.7,5c3.1,3.3,4.6,7.7,4.6,13.4     c0,5.6-1.5,10.1-4.6,13.3c-3.2,3.3-7.8,5-13.7,5h-13v-36.6H575 M507.2,590v-13H540v-8.2h-42.8v53.8h43.6v-8.3h-33.6v-15.9h28.5     V590H507.2 M305.5,595.7c0,7.7,2.6,14.2,7.8,19.5c5,5.3,12.1,8.1,21.4,8.3c9.1-0.2,16.2-3,21.3-8.3c5.1-5.3,7.7-11.8,7.7-19.5     c0-7.7-2.6-14.2-7.7-19.5c-5.4-5.5-12.5-8.3-21.3-8.3c-8.8,0-15.9,2.8-21.4,8.3C308.1,581.4,305.5,587.9,305.5,595.7 M321,609.3     c-3.6-3.6-5.4-8.1-5.5-13.6c0-5.4,1.9-9.9,5.5-13.6c3.7-3.6,8.2-5.5,13.5-5.5s9.9,1.8,13.6,5.5c3.7,3.7,5.5,8.2,5.5,13.6     c-0.1,5.5-1.9,10.1-5.5,13.6c-3.6,3.6-8.1,5.4-13.6,5.5C329,614.7,324.5,612.9,321,609.3 M268.6,568.8h-9.9v53.8h41.7v-8.6h-31.8     V568.8 M214.1,590v-13h32.7v-8.2h-42.8v53.8h43.6v-8.3h-33.6v-15.9h28.4V590H214.1 M187.1,573.3c-3.6-3-8.7-4.5-15.1-4.5h-26.2     v53.8h10V602h13.6l13.2,20.6h11.2l-14.7-22.1c4.1-1.3,7.2-3.3,9.4-5.8c2.4-2.7,3.7-6,3.7-9.8C192.3,580,190.6,576.2,187.1,573.3      M182.1,585.5c0,2.6-0.9,4.7-2.8,6.2c-1.8,1.5-4.2,2.3-7.4,2.3h-16.1v-17h15.9c3.1,0,5.5,0.7,7.3,2.2     C181.1,580.8,182.1,582.9,182.1,585.5 M146.9,691.3v1c20.6-0.1,39.8-1.8,57.5-4.8c7.7-1.4,17.2-3.4,28.6-6.2     c11.3,2.8,21,4.9,29.1,6.3c18.4,3.2,38.4,4.8,60.1,4.8c21.6,0,41.7-1.6,60.1-4.8c7.9-1.4,17.5-3.4,28.9-6.2     c11.2,2.8,20.6,4.8,28.3,6.1c18.1,3.1,37.6,4.8,58.7,4.8v-1c-7.7-0.2-17.6-1.7-29.8-4.5c-8.2-1.7-20.3-4.8-36.3-9.2l-3.7-1     l3.7-0.9c16-4.5,28.1-7.6,36.3-9.3c12.2-2.8,22.1-4.2,29.8-4.4v-1.1c-21.1,0.1-40.6,1.7-58.7,4.9c-7.7,1.3-17.1,3.4-28.3,6.2     c-11.4-2.9-21-5-28.9-6.4c-18.4-3.2-38.5-4.8-60.1-4.8c-21.7,0-41.7,1.6-60.1,4.8c-8.1,1.4-17.8,3.5-29.1,6.4     c-11.4-2.8-20.9-4.9-28.6-6.2c-17.7-3.1-36.9-4.7-57.5-4.9v1.1c7.5,0.3,17.2,1.8,29.1,4.4c7.9,1.7,19.9,4.8,35.9,9.3l3.6,0.9     l-3.6,1c-16,4.4-28,7.5-35.9,9.2C164.1,689.5,154.4,691,146.9,691.3 M254.4,677.6l-3.8-1l3.8-0.9c15.8-4.5,27.8-7.6,36.1-9.4     c13.4-3,23.9-4.5,31.7-4.5s18.3,1.5,31.6,4.5c8,1.8,20.1,4.9,36.1,9.4l3.7,0.9l-3.7,1c-16,4.4-28,7.5-36.1,9.3     c-13.3,3-23.9,4.5-31.6,4.5s-18.3-1.5-31.7-4.5C282.2,685.1,270.1,682,254.4,677.6 M544.9,117.2c-0.4-0.4-0.8-0.8-1.2-1.2     c-5.7,0.9-11.6,1.3-17.6,1.3c-28.7,0-53.2-10.1-73.4-30.4c-10.6-10.6-18.5-22.4-23.5-35.5c-10.9-2.6-22.2-4.4-33.8-5.4     c-8.1-0.7-16.4-1.1-24.8-1.1c-8.4,0-16.6,0.4-24.7,1.1c-11.4,1-22.5,2.8-33.4,5.3c-5.1,13-12.9,24.9-23.6,35.5     c-20.3,20.3-44.7,30.4-73.4,30.4c-6.2,0-12.1-0.5-17.9-1.4c-0.4,0.4-0.9,0.8-1.3,1.2c-34.4,34.5-56.6,74-66.4,118.7     c13.1,17.6,19.7,37.9,19.7,61c0,21.9-5.9,41.3-17.8,58.3c10.6,41.4,32.1,78.2,64.4,110.6c3.8,3.7,7.6,7.4,11.6,10.9     c2.5-0.2,5.1-0.2,7.7-0.2c28.7,0,53.1,10.1,73.4,30.4c6.3,6.3,11.6,13,15.9,20.1c0.7,1.1,1.3,2.2,2,3.3     c20.2,5.2,41.4,7.8,63.8,7.8c22.5,0,43.9-2.6,64.2-7.9c0.6-1.1,1.2-2.1,1.9-3.2c4.3-7.1,9.6-13.8,15.9-20.1     c20.3-20.3,44.8-30.4,73.4-30.4c2.4,0,4.9,0.1,7.3,0.2c3.9-3.5,7.7-7.1,11.5-10.9c32-32,53.4-68.5,64.1-109.2     c-12.4-17.3-18.7-37.2-18.7-59.6c0-23.6,6.9-44.4,20.7-62.3C601.1,190.5,579,151.4,544.9,117.2 M529,157.9     c15.9,4.3,27.9,13.5,36.1,27.7c8.2,14.2,10.2,29.2,6,45.1c-4.3,15.9-13.5,27.9-27.7,36c-14.2,8.2-29.2,10.2-45,6     c-15.9-4.3-27.9-13.5-36.1-27.7c-8.2-14.2-10.2-29.2-5.9-45.1c4.2-15.8,13.4-27.9,27.6-36.1C498.1,155.7,513.1,153.7,529,157.9      M328.5,90c11.6-11.6,25.6-17.4,42-17.4c16.4,0,30.4,5.8,42,17.4c11.6,11.6,17.4,25.6,17.4,42s-5.8,30.4-17.4,42.1     c-11.6,11.6-25.6,17.4-42,17.4c-16.4,0-30.4-5.8-42-17.4C316.9,162.4,311,148.4,311,132S316.9,101.6,328.5,90 M336.6,291.6     l-8.5-24.5l25.4-4.9l17-19.6l17,19.6l25.4,4.9l-8.5,24.5l8.5,24.4l-25.4,4.9l-17,19.6l-17-19.6l-25.4-4.9L336.6,291.6      M449.5,394.5c-3.9-16-1.5-31,7-45c8.5-14,20.8-23,36.7-26.9c15.9-3.9,30.9-1.6,45,6.9c14,8.5,23,20.7,26.8,36.7     c3.9,16,1.6,31-6.9,45c-8.5,14-20.7,23-36.7,26.9c-15.9,3.9-30.9,1.5-45-7C462.4,422.6,453.4,410.4,449.5,394.5 M183.8,183.9     c8.5-14,20.8-23,36.7-26.9c15.9-3.9,30.9-1.6,44.9,6.9c14,8.5,23,20.8,26.9,36.7c3.9,16,1.6,31-6.9,45c-8.5,14-20.8,23-36.8,26.9     c-15.9,3.9-30.9,1.6-44.9-7c-14-8.5-23-20.7-26.9-36.6C172.9,212.9,175.2,197.9,183.8,183.9 M179.9,359.5     c4.2-15.8,13.5-27.9,27.7-36.1c14.2-8.2,29.2-10.2,45.1-5.9c15.8,4.3,27.9,13.5,36.1,27.7c8.2,14.2,10.1,29.2,5.9,45.1     c-4.2,15.9-13.5,27.9-27.7,36.1c-14.2,8.2-29.2,10.2-45.1,5.9s-27.9-13.5-36.1-27.7C177.6,390.4,175.6,375.4,179.9,359.5      M429.9,451.1c0,16.4-5.8,30.4-17.4,42c-11.6,11.6-25.6,17.4-42,17.4c-16.4,0-30.4-5.8-42-17.4c-11.6-11.6-17.4-25.6-17.4-42     c0-16.4,5.8-30.4,17.4-42c11.6-11.6,25.6-17.5,42-17.5c16.4,0,30.4,5.8,42,17.5C424.1,420.7,429.9,434.7,429.9,451.1 M356,277.1     c-4,4-6,8.8-6,14.4c0,5.7,2,10.5,6,14.5c4,4,8.8,6,14.5,6c5.7,0,10.5-2,14.5-6c4-4,6-8.8,6-14.5c0-5.6-2-10.4-6-14.4     c-4-4-8.8-6-14.5-6C364.8,271.1,360,273.1,356,277.1"/>
            </g>
        </g>
        <g>
            <path fill="#a8a9ad" d="M506.3,220.6V235h3.9v14.7h-25.7V235h3.9v-35.7h-3.9v-14.6h21.1l17.9,29.7v-15.1h-3.9v-14.6h25.7v14.6h-3.9V235h3.9v14.7    h-21.5L506.3,220.6z"/>
        </g>
    </g>
    <g transform="matrix( 0, 1.3528594970703125, -1.2890167236328125, 0, 1268.85,270.35) ">
        <g>
            <g id="Layer0_0_MEMBER_2_MEMBER_0_MEMBER_0_FILL">
                <path d="M312.8,541.2h-25.4v34.4h25.4V541.2z" fill="#a8a9ad"/>
            </g>
        </g>
    </g>
    <g transform="matrix( 0, 1.3528594970703125, -1.2890167236328125, 0, 1268.85,270.35) ">
        <g>
            <g id="Layer0_0_MEMBER_2_MEMBER_0_MEMBER_1_FILL">
                <path fill="#a8a9ad" d="M312.8,579.1h-25.4l0.6,2.1c0.3,1.6,0.1,3-0.6,4.2h25.4c-0.6-1.2-0.8-2.6-0.6-4.2L312.8,579.1z"/>
            </g>
        </g>
    </g>
    <g transform="matrix( 0.9508514404296875, 0, 0, 0.9979095458984375, -95.35,-178.8) ">
        <g>
            <g id="Layer0_0_MEMBER_2_MEMBER_0_MEMBER_2_FILL">
                <path fill="#a8a9ad" d="M637.5,839.6c0-0.5-0.8-0.8-2.2-0.8c-1.5,0-2.2,0.2-2.2,0.8V875c0,0.5,0.8,0.8,2.2,0.8s2.2-0.2,2.2-0.8V839.6z"/>
            </g>
        </g>
    </g>
    <g transform="matrix( 0, 1.3528594970703125, -1.2890167236328125, 0, 1268.85,270.35) ">
        <g>
            <g id="Layer0_0_MEMBER_2_MEMBER_0_MEMBER_3_FILL">
                <path d="M287.5,537.5h25.4c-0.2-3.7-0.9-7.3-2.1-11c-2.4-7.4-5.9-11-10.5-11c-4.6,0-8.1,3.7-10.6,11     C288.4,530.2,287.7,533.8,287.5,537.5z" fill="red"/>
            </g>
        </g>
    </g>
    <g>
        <path d="M371.4,470.2v14.7h-25.7v-14.7h3.9v-35.7h-3.9v-14.6h40.2l10.4,10.4v16.6l-4.3,4.3l4.3,4.3v14.7h3.9v14.7h-21.8v-24.3   l-2.1-2.1h-8.9v11.7H371.4z M376.4,443.9l2.1-2.1v-5.2l-2.1-2.1h-8.9v9.4H376.4z" fill="#a8a9ad"/>
    </g>
    <g>
        <path d="M516.5,398.7v-2.6h14.7v17.2h-47.8v-14.7h3.9V363h-3.9v-14.6h47.8v17.2h-14.7V363h-11.4v10.6h2.7v-2.6h14.6v19.7h-14.6   v-2.6h-2.7v10.5H516.5z" fill="#a8a9ad"/>
    </g>
    <g>
        <path d="M260.9,398.7l-10.4,10.4h-28.6l-10.4-10.4v-44.2l10.4-10.4h28.6l10.4,10.4V369H243v-8.2l-2-2.1h-9.5l-2.1,2.1v31.6l2.1,2   h9.5l2-2v-6.2h-4.9v-13.3h22.8V398.7z" fill="#a8a9ad"/>
    </g>
    <g>
        <path d="M244.5,237.2h3.9v14.7h-25.7v-14.7h3.9v-14.7l-21.1-21.1h-6.1v-14.6h30.9v14.6h-2.6l7.8,7.8l7.8-7.8h-2.7v-14.6h30v14.6   h-5.1l-21.1,21.1V237.2z" fill="#a8a9ad"/>
    </g>
</svg>